<svg xmlns="http://www.w3.org/2000/svg" width="131" height="25" viewBox="0 0 131 25" fill="none"><path d="M22.6759 14.6462C22.6759 14.6462 24.0182 13.5932 22.3935 13.3596L22.2528 12.8332L23.415 13.0656C23.415 13.0656 22.885 8.50529 22.0402 8.62151C21.1953 8.73773 20.8396 11.8384 19.6391 12.2486C19.6391 12.2486 20.4863 10.4938 19.9215 9.90802C19.3567 9.32229 20.9105 7.97883 19.8506 7.74408C19.8506 7.74408 19.1092 7.71502 18.5095 8.03694C18.5095 8.03694 17.5914 8.00672 17.9796 7.74408C18.3677 7.48143 19.4648 7.36405 19.0255 7.24783C18.5862 7.13162 17.9122 6.78297 18.5479 6.80854C19.1836 6.8341 20.5607 7.53605 20.8083 6.80854C21.0558 6.08102 21.3731 5.02578 20.0668 4.73291C20.0668 4.73291 20.6316 2.77351 18.1946 2.7154C18.1946 2.7154 16.5675 1.45794 14.8754 2.27726C14.8754 2.27726 13.9224 3.18375 15.0869 3.68116C16.2514 4.17856 15.7587 4.44121 15.7587 4.44121C15.7587 4.44121 14.2049 4.52837 14.8045 5.23032C15.4042 5.93226 15.9353 5.66962 15.4402 6.34135C14.9452 7.01308 14.0282 7.42448 14.7697 8.30075C15.5111 9.17702 15.0137 9.88129 15.0137 9.88129C15.0137 9.88129 13.7063 11.7245 15.0834 12.7774C16.4606 13.8303 16.2851 13.9756 16.2851 13.9756L15.7552 14.3556C15.7552 14.3556 14.7662 14.8786 14.9823 15.8165C14.9823 15.8165 14.5698 16.5138 14.9533 17.7456C14.9533 17.7456 13.8527 21.9573 15.7598 21.8992C17.6669 21.8411 18.3015 21.2554 18.585 20.9625C18.8686 20.6697 20.3504 19.9689 20.6328 19.2669C20.6328 19.2669 21.7624 18.5696 21.9042 17.6294C21.8995 17.6294 24.2297 15.3772 22.6759 14.6462ZM20.2597 17.4888C20.2597 17.4888 19.9413 16.2569 18.0284 15.2888C18.0284 15.2888 19.8344 15.2017 19.6217 14.2336C19.6217 14.2336 20.8966 14.3219 20.2597 17.4888Z" fill="#23C5B7"></path><path d="M20.9471 2.82275C20.9471 2.82275 23.3876 2.82275 22.5892 4.88443L21.7687 4.05116C21.7687 4.05116 21.8478 3.43638 20.9471 2.82275Z" fill="#23C5B7"></path><path d="M22.9947 7.53673C23.2444 7.53673 23.4468 7.33433 23.4468 7.08465C23.4468 6.83497 23.2444 6.63257 22.9947 6.63257C22.745 6.63257 22.5426 6.83497 22.5426 7.08465C22.5426 7.33433 22.745 7.53673 22.9947 7.53673Z" fill="#23C5B7"></path><path d="M6.9253 17.859C7.06592 18.7945 8.19554 19.4965 8.19554 19.4965C8.47911 20.1938 9.96203 20.9004 10.2444 21.1921C10.5268 21.4838 11.1625 22.0695 13.0697 22.1288C14.9768 22.188 13.8762 17.9752 13.8762 17.9752C14.2585 16.748 13.846 16.046 13.846 16.046C14.0575 15.1093 13.0697 14.5829 13.0697 14.5829L12.5385 14.2028C12.5385 14.2028 12.3619 14.0564 13.7391 13.0046C15.1162 11.9529 13.8169 10.1108 13.8169 10.1108C13.8169 10.1108 13.3218 9.41355 14.0633 8.53147C14.8048 7.64939 13.8867 7.24496 13.3927 6.57206C12.8988 5.89917 13.4276 6.16298 14.0284 5.46104C14.6293 4.75909 13.0755 4.67193 13.0755 4.67193C13.0755 4.67193 12.5804 4.40812 13.746 3.91187C14.9117 3.41563 13.9575 2.50798 13.9575 2.50798C12.2631 1.69447 10.6384 2.94612 10.6384 2.94612C8.19787 3.00422 8.76733 4.96363 8.76733 4.96363C7.45408 5.25417 7.77368 6.30709 8.02006 7.03693C8.26643 7.76677 9.64708 7.06714 10.2793 7.03693C10.9115 7.00671 10.2444 7.35885 9.80165 7.47623C9.35887 7.5936 10.4559 7.70866 10.8476 7.97247C11.2392 8.23628 10.3188 8.26533 10.3188 8.26533C9.71798 7.94342 8.97652 7.97247 8.97652 7.97247C7.91662 8.2049 9.47044 9.55185 8.90562 10.1364C8.34081 10.721 9.18803 12.477 9.18803 12.477C7.98752 12.0668 7.63422 8.96728 6.787 8.8499C5.93978 8.73252 5.41565 13.2952 5.41565 13.2952L6.57781 13.0627L6.43603 13.5892C4.80668 13.8228 6.14665 14.8757 6.14665 14.8757C4.594 15.6067 6.9253 17.859 6.9253 17.859ZM9.20198 14.4631C8.9893 15.4312 10.7953 15.5184 10.7953 15.5184C8.88354 16.4865 8.56511 17.7184 8.56511 17.7184C7.92708 14.5515 9.20198 14.4631 9.20198 14.4631Z" fill="#23C5B7"></path><path d="M8.4331 2.82275C8.4331 2.82275 5.99255 2.82275 6.79096 4.88443L7.61145 4.05116C7.61145 4.05116 7.53242 3.43638 8.4331 2.82275Z" fill="#23C5B7"></path><path d="M6.75445 7.77843C7.00413 7.77843 7.20653 7.57603 7.20653 7.32635C7.20653 7.07667 7.00413 6.87427 6.75445 6.87427C6.50477 6.87427 6.30237 7.07667 6.30237 7.32635C6.30237 7.57603 6.50477 7.77843 6.75445 7.77843Z" fill="#23C5B7"></path><path d="M34.7643 16.8876C34.3062 16.81 33.8601 16.6732 33.4371 16.4808V15.0269C33.8842 15.2405 34.3546 15.4015 34.8387 15.5069C35.3115 15.6121 35.7943 15.6659 36.2786 15.6673C36.8752 15.6673 37.3288 15.5561 37.6395 15.3337C37.7883 15.232 37.909 15.0942 37.9902 14.9333C38.0715 14.7723 38.1108 14.5935 38.1044 14.4133C38.1131 14.1667 38.0377 13.9245 37.8905 13.7265C37.72 13.5216 37.506 13.3573 37.2641 13.2453C36.9875 13.1082 36.5649 12.9281 35.9962 12.7049C35.1246 12.3509 34.4932 11.9553 34.1019 11.5184C33.706 11.0707 33.4961 10.4887 33.515 9.89133C33.5072 9.40957 33.6521 8.93769 33.9287 8.54322C34.2228 8.13746 34.6257 7.82319 35.0909 7.63674C35.6372 7.41557 36.2229 7.30839 36.8121 7.32179C37.2885 7.31292 37.7647 7.35186 38.2334 7.43801C38.6532 7.52481 39.0623 7.65691 39.4537 7.83198V9.25098C38.7242 8.88735 37.9212 8.69535 37.1061 8.68966C36.5366 8.68966 36.0962 8.79541 35.7847 9.00344C35.6365 9.09801 35.5156 9.22973 35.434 9.38549C35.3525 9.54125 35.3131 9.71564 35.3198 9.89133C35.3091 10.1337 35.3844 10.3721 35.5325 10.5642C35.6889 10.7488 35.8821 10.8988 36.0996 11.0047C36.3321 11.1248 36.7582 11.3138 37.378 11.5718C37.8943 11.7741 38.3885 12.0288 38.8528 12.3319C39.1892 12.5549 39.4679 12.8544 39.6663 13.2058C39.8588 13.583 39.9527 14.0028 39.9394 14.4261C39.9394 15.2536 39.6415 15.8962 39.0457 16.3541C38.4499 16.812 37.5694 17.041 36.4041 17.041C35.8539 17.0416 35.3049 16.9902 34.7643 16.8876Z" fill="#1C1B1A"></path><path d="M49.2729 7.51685H55.5834V8.91144H50.9673V11.4682H54.3957V12.8628H50.9673V15.4196H55.5834V16.8141H49.2729V7.51685Z" fill="#1C1B1A"></path><path d="M64.4547 7.51685H66.2549L69.0034 14.5735L71.7647 7.51685H73.5533L69.8344 16.8409H68.1899L64.4547 7.51685Z" fill="#1C1B1A"></path><path d="M84.5579 7.51685H86.1989L89.9178 16.8409H88.1966L87.3424 14.6932H83.3911L82.5497 16.8409H80.8239L84.5579 7.51685ZM86.8822 13.2928L85.3714 9.32982L83.8606 13.2928H86.8822Z" fill="#1C1B1A"></path><path d="M99.2594 7.51685H103.155C104.186 7.51685 104.982 7.7702 105.542 8.2769C106.102 8.7836 106.382 9.51732 106.382 10.478C106.4 11.0978 106.223 11.7076 105.876 12.2213C105.522 12.7126 105.015 13.0737 104.436 13.2486L106.327 16.8409H104.595L102.795 13.4253H100.953V16.8409H99.2594V7.51685ZM102.847 12.0249C103.399 12.0249 103.844 11.8959 104.181 11.6379C104.518 11.3799 104.687 10.9925 104.689 10.4757C104.689 9.43519 104.075 8.91493 102.847 8.91493H100.953V12.0226L102.847 12.0249Z" fill="#1C1B1A"></path><path d="M117.675 16.4343C116.935 16.0403 116.32 15.4464 115.901 14.7201C115.461 13.9488 115.238 13.0731 115.255 12.1854C115.237 11.2962 115.46 10.4188 115.901 9.64608C116.321 8.919 116.936 8.32312 117.675 7.92492C118.455 7.52171 119.319 7.31128 120.197 7.31128C121.074 7.31128 121.939 7.52171 122.718 7.92492C123.458 8.32312 124.072 8.919 124.493 9.64608C124.932 10.4174 125.155 11.2931 125.139 12.1808C125.156 13.0663 124.933 13.9399 124.493 14.7085C124.07 15.435 123.454 16.03 122.713 16.4273C121.94 16.8416 121.075 17.0527 120.198 17.0409C119.32 17.053 118.452 16.8445 117.675 16.4343ZM121.831 15.1001C122.319 14.8275 122.721 14.4253 122.993 13.938C123.291 13.4023 123.441 12.7969 123.427 12.1842C123.439 11.5759 123.292 10.9749 123 10.441C122.728 9.95183 122.326 9.54757 121.838 9.27303C121.336 8.99505 120.771 8.85284 120.197 8.86046C119.622 8.85343 119.054 8.99557 118.55 9.27303C118.062 9.54654 117.659 9.95105 117.388 10.441C117.095 10.9744 116.947 11.5757 116.961 12.1842C116.947 12.7969 117.096 13.4023 117.394 13.938C117.669 14.4271 118.076 14.8297 118.568 15.1001C119.069 15.3728 119.631 15.5129 120.202 15.5069C120.771 15.5138 121.332 15.3737 121.831 15.1001Z" fill="#1C1B1A"></path></svg>